<?xml version="1.0" standalone="no"?><!DOCTYPE svg PUBLIC "-//W3C//DTD SVG 1.1//EN" "http://www.w3.org/Graphics/SVG/1.1/DTD/svg11.dtd"><svg t="1611365558215" class="icon" viewBox="0 0 1157 1024" version="1.1" xmlns="http://www.w3.org/2000/svg" p-id="3227" xmlns:xlink="http://www.w3.org/1999/xlink" width="36.15625" height="32"><defs><style type="text/css"></style></defs><path d="M845.913043 311.652174c58.145391 0 107.653565 37.175652 125.996522 89.043478H1024a133.565217 133.565217 0 0 1 133.565217 133.565218v44.521739a178.086957 178.086957 0 0 1-178.086956 178.086956h-11.219478c-39.535304 153.6-178.977391 267.130435-344.954435 267.130435H356.173913a356.173913 356.173913 0 0 1-356.173913-356.173913v-222.608696a133.565217 133.565217 0 0 1 133.565217-133.565217z m0 89.043478H133.565217a44.521739 44.521739 0 0 0-44.521739 44.521739v222.608696a267.130435 267.130435 0 0 0 267.130435 267.130435h267.130435a267.130435 267.130435 0 0 0 267.130435-267.130435v-222.608696a44.521739 44.521739 0 0 0-44.52174-44.521739z m178.086957 89.043478h-44.521739v178.086957a89.043478 89.043478 0 0 0 88.820869-82.365217L1068.521739 578.782609v-44.521739a44.521739 44.521739 0 0 0-44.521739-44.52174zM267.130435 489.73913a44.521739 44.521739 0 0 1 44.521739 44.52174v89.043478a44.521739 44.521739 0 0 1-89.043478 0v-89.043478a44.521739 44.521739 0 0 1 44.521739-44.52174z m0-400.695652a44.521739 44.521739 0 0 1 44.521739 44.521739v89.043479a44.521739 44.521739 0 1 1-89.043478 0V133.565217a44.521739 44.521739 0 0 1 44.521739-44.521739z m222.608695-89.043478a44.521739 44.521739 0 0 1 44.52174 44.521739v178.086957a44.521739 44.521739 0 0 1-89.043479 0V44.521739a44.521739 44.521739 0 0 1 44.521739-44.521739z" fill="#8a8a8a" p-id="3228"></path></svg>