<?xml version="1.0" standalone="no"?><!DOCTYPE svg PUBLIC "-//W3C//DTD SVG 1.1//EN" "http://www.w3.org/Graphics/SVG/1.1/DTD/svg11.dtd"><svg t="1611365775560" class="icon" viewBox="0 0 1024 1024" version="1.1" xmlns="http://www.w3.org/2000/svg" p-id="7106" xmlns:xlink="http://www.w3.org/1999/xlink" width="32" height="32"><defs><style type="text/css"></style></defs><path d="M710.040168 693.950243c-198.029854 0-231.03483-49.507464-396.059708-49.507464-69.826152 0-151.224673 35.35658-174.678834 46.26885l22.030821 255.169719a66.009951 66.009951 0 0 0 65.865555 61.616164h404.579118a66.009951 66.009951 0 0 0 65.865554-61.616164l21.762656-251.931105z" fill="#8a8a8a" p-id="7107" data-spm-anchor-id="a313x.7781069.0.i3" class="selected"></path><path d="M240.379364 288.092182a81.460406 81.460406 0 0 0-8.498781 108.813279h-132.432466a16.502488 16.502488 0 0 0-16.502487 16.502488v132.019903a16.667513 16.667513 0 0 0 1.732761 7.384863l31.602264 63.183901 28.59056 330.978022a82.739349 82.739349 0 0 0 82.326787 77.025362h404.579118a82.656836 82.656836 0 0 0 82.306158-76.695312l28.631816-331.287444L774.296731 552.833343a16.502488 16.502488 0 0 0 1.753389-7.384863v-132.019903a16.502488 16.502488 0 0 0-16.502488-16.502488h-108.772023l103.965673-297.044781h169.831229a16.502488 16.502488 0 0 0 16.502487-16.502488v-66.009952a16.502488 16.502488 0 0 0-16.502487-16.502487h-231.03483a16.502488 16.502488 0 0 0-15.450455 10.705989l-109.143329 290.980117a65.473621 65.473621 0 0 0-23.928607-4.661953h-9.179509a65.37048 65.37048 0 0 0 9.179509-33.004976 66.009951 66.009951 0 0 0-66.009952-66.009951 46.867066 46.867066 0 0 1-45.50561-35.500977L429.064684 145.386918l-0.577587-1.650249a16.502488 16.502488 0 0 0-15.512338-10.871014h-1.320199c-2.062811 0-4.125622 0.309422-6.188433 0.412563-120.138112 25.599484-124.511271 131.297919-124.511271 131.297919s-30.282065 11.201064-40.59612 23.516045M908.070023 66.855704h-156.773635l-24.753732-33.004976h181.527367z m-627.094539 196.627143v1.09329m-33.004976 83.667613c-0.474447-27.682923 22.938458-50.353216 50.621382-50.353216h64.896033a16.502488 16.502488 0 0 0 16.502488-16.502488 16.502488 16.502488 0 0 0-16.502488-16.502488h-49.507463v-1.402711a98.086662 98.086662 0 0 1 47.444652-83.688242 96.952116 96.952116 0 0 1 38.925244-13.181362l1.19643 4.744465a79.748273 79.748273 0 0 0 77.252271 60.522875 33.417538 33.417538 0 0 1 33.273141 32.798694 33.004976 33.004976 0 0 1-33.004975 33.211257h-16.502488a16.502488 16.502488 0 0 0-16.502488 16.502488 16.502488 16.502488 0 0 0 16.502488 16.502488h81.542918c17.760803 0 33.004976 13.614552 33.933241 31.354727a33.004976 33.004976 0 0 1-33.004976 34.655224h-247.537318a49.507464 49.507464 0 0 1-49.528092-48.661711z m248.424327 543.736347h-133.814549l-15.594851-280.542294a82.512439 82.512439 0 0 1 165.024879-0.165024z m-182.414375-280.542294v0.928265l15.553595 279.614029H173.276123L148.996837 611.087126a82.512439 82.512439 0 0 1 165.024879 0.350677z m317.79666 379.557221H227.198002a49.713745 49.713745 0 0 1-49.507464-46.537015l-1.670877-19.472936h418.503092a16.502488 16.502488 0 0 0 16.502488-16.502488 16.502488 16.502488 0 0 0-16.502488-16.502488h-65.081686l15.574223-280.542294a82.512439 82.512439 0 0 1 165.024878-0.350677l-24.299913 280.892971h-25.20755a16.502488 16.502488 0 0 0-16.502488 16.502488 16.502488 16.502488 0 0 0 16.502488 16.502488h22.360871l-1.732761 19.802985a49.631232 49.631232 0 0 1-49.383695 46.206966z m111.268024-449.465885L732.297899 563.147398a115.228622 115.228622 0 0 0-203.764469-10.809129 115.187365 115.187365 0 0 0-198.029854 0 115.24925 115.24925 0 0 0-203.805725 10.809129l-10.747246-21.535746v-111.701215h627.094539z m-141.199412-144.623678a64.256562 64.256562 0 0 0-5.34268-73.786749l101.902862-271.775347 26.156444 34.882134-108.751395 310.679962z" fill="#8a8a8a" p-id="7108" data-spm-anchor-id="a313x.7781069.0.i4" class="selected"></path></svg>