<?xml version="1.0" standalone="no"?><!DOCTYPE svg PUBLIC "-//W3C//DTD SVG 1.1//EN" "http://www.w3.org/Graphics/SVG/1.1/DTD/svg11.dtd"><svg t="1610971987889" class="icon" viewBox="0 0 1024 1024" version="1.1" xmlns="http://www.w3.org/2000/svg" p-id="14332" xmlns:xlink="http://www.w3.org/1999/xlink" width="32" height="32"><defs><style type="text/css"></style></defs><path d="M389.255 627.845c-3.807 0-7.285-0.635-10.431-1.903-3.148-1.269-5.838-3.096-8.071-5.482-2.234-2.385-3.959-5.292-5.177-8.718-1.218-3.427-1.828-7.297-1.828-11.612 0-3.756 0.596-7.309 1.789-10.66 1.192-3.35 2.829-6.269 4.911-8.757a22.994 22.994 0 0 1 7.5-5.901c2.918-1.447 6.129-2.17 9.632-2.17 1.828 0 3.579 0.203 5.254 0.609 1.675 0.407 3.198 0.94 4.569 1.599 1.371 0.661 2.589 1.409 3.655 2.246 1.066 0.838 1.928 1.688 2.589 2.551 0.507 0.965 0.71 1.802 0.609 2.513a1.948 1.948 0 0 1-0.647 1.028c-0.331 0.279-0.775 0.47-1.333 0.57-0.609 0.153-1.358-0.062-2.246-0.647a183.676 183.676 0 0 0-3.16-2.018c-1.218-0.762-2.615-1.472-4.188-2.132-1.574-0.659-3.35-0.99-5.33-0.99-2.741 0-5.204 0.66-7.386 1.979a19.056 19.056 0 0 0-5.558 5.101c-1.523 2.082-2.691 4.455-3.503 7.12-0.812 2.665-1.218 5.318-1.218 7.956 0 3.25 0.444 6.244 1.333 8.985 0.887 2.741 2.17 5.114 3.845 7.119 1.675 2.007 3.731 3.554 6.167 4.645 2.437 1.092 5.178 1.638 8.223 1.638 2.437-0.05 4.505-0.482 6.206-1.294a20.058 20.058 0 0 0 4.759-3.198c1.116-0.862 2.081-1.218 2.893-1.066 0.762 0.204 1.32 0.571 1.675 1.105 0.355 0.533 0.507 1.078 0.457 1.637-0.051 0.559-0.495 1.294-1.333 2.208-0.838 0.914-1.98 1.816-3.426 2.703-1.447 0.889-3.135 1.65-5.063 2.285-1.93 0.633-3.986 0.951-6.168 0.951zM435.092 572.642c3.857 0 7.221 0.736 10.089 2.208 2.867 1.473 5.254 3.465 7.157 5.977 1.904 2.513 3.337 5.444 4.302 8.794 0.963 3.35 1.447 6.879 1.447 10.585 0 3.757-0.47 7.297-1.409 10.621-0.94 3.326-2.36 6.258-4.264 8.795-1.904 2.538-4.29 4.543-7.158 6.015-2.868 1.472-6.257 2.208-10.165 2.208-3.807 0-7.157-0.736-10.051-2.208-2.894-1.472-5.292-3.465-7.195-5.977-1.904-2.513-3.338-5.444-4.302-8.794-0.965-3.35-1.446-6.903-1.446-10.66 0-3.706 0.457-7.234 1.37-10.585 0.914-3.35 2.322-6.281 4.226-8.794 1.904-2.513 4.302-4.505 7.195-5.977 2.894-1.472 6.294-2.208 10.204-2.208z m0 49.72c2.842 0 5.33-0.533 7.462-1.599a14.683 14.683 0 0 0 5.33-4.492c1.421-1.929 2.487-4.238 3.198-6.929 0.71-2.689 1.066-5.659 1.066-8.909 0-2.943-0.33-5.76-0.99-8.452-0.66-2.69-1.688-5.076-3.084-7.157a15.922 15.922 0 0 0-5.33-4.987c-2.158-1.244-4.709-1.866-7.652-1.866-2.944 0-5.495 0.622-7.652 1.866a16.035 16.035 0 0 0-5.33 4.949c-1.396 2.056-2.424 4.417-3.083 7.081-0.66 2.666-0.99 5.445-0.99 8.338 0 2.843 0.33 5.584 0.99 8.223 0.659 2.64 1.675 5.001 3.045 7.081a15.537 15.537 0 0 0 5.292 4.987c2.156 1.246 4.732 1.866 7.728 1.866zM492.046 596.779c1.624 0 2.589 0.508 2.894 1.523 0.253 0.559 0.228 1.194-0.076 1.904-0.304 1.269-1.244 1.903-2.817 1.903h-19.188v22.234c0 0.864-0.229 1.536-0.686 2.018-0.457 0.482-1.269 0.724-2.436 0.724-1.117 0-1.879-0.242-2.284-0.724-0.407-0.482-0.609-1.153-0.609-2.018v-46.827c0-1.269 0.254-2.133 0.762-2.59 0.507-0.457 1.42-0.685 2.741-0.685h23.832c2.132 0 3.198 0.914 3.198 2.741 0 1.016-0.266 1.714-0.8 2.094-0.533 0.381-1.358 0.571-2.474 0.571h-21.244v17.131h19.187zM530.422 596.779c1.624 0 2.589 0.508 2.893 1.523 0.253 0.559 0.228 1.194-0.076 1.904-0.304 1.269-1.245 1.903-2.817 1.903h-19.188v22.234c0 0.864-0.229 1.536-0.686 2.018-0.457 0.482-1.269 0.724-2.436 0.724-1.117 0-1.879-0.242-2.284-0.724-0.407-0.482-0.609-1.153-0.609-2.018v-46.827c0-1.269 0.254-2.133 0.762-2.59 0.507-0.457 1.42-0.685 2.741-0.685h23.832c2.132 0 3.198 0.914 3.198 2.741 0 1.016-0.266 1.714-0.8 2.094-0.533 0.381-1.358 0.571-2.474 0.571h-21.244v17.131h19.188zM549.61 621.068h19.568c0.812 0 1.586 0.014 2.322 0.038 0.735 0.026 1.382 0.114 1.942 0.266 0.558 0.152 1.002 0.406 1.332 0.762 0.33 0.355 0.495 0.863 0.495 1.522 0 1.066-0.28 1.778-0.838 2.132-0.559 0.355-1.473 0.534-2.741 0.534h-24.594c-1.168 0-2.044-0.217-2.627-0.647-0.584-0.431-0.876-1.306-0.876-2.627v-45.533c0-1.218 0.254-2.068 0.762-2.551 0.507-0.482 1.42-0.723 2.741-0.723h24.137c1.066 0 1.865 0.19 2.398 0.571 0.533 0.381 0.824 1.078 0.876 2.093 0 0.965-0.28 1.637-0.838 2.018-0.559 0.381-1.37 0.571-2.436 0.571H549.61v17.284h20.863c1.167 0 2.005 0.204 2.513 0.61 0.507 0.406 0.761 1.117 0.761 2.132 0 0.965-0.254 1.625-0.761 1.98-0.508 0.355-1.346 0.533-2.513 0.533H549.61v19.035zM590.878 621.068h19.569c0.812 0 1.586 0.014 2.322 0.038 0.735 0.026 1.382 0.114 1.942 0.266 0.558 0.152 1.002 0.406 1.332 0.762 0.33 0.355 0.495 0.863 0.495 1.522 0 1.066-0.28 1.778-0.838 2.132-0.559 0.355-1.473 0.534-2.741 0.534h-24.594c-1.168 0-2.044-0.217-2.627-0.647-0.584-0.431-0.876-1.306-0.876-2.627v-45.533c0-1.218 0.254-2.068 0.762-2.551 0.507-0.482 1.42-0.723 2.741-0.723h24.137c1.066 0 1.865 0.19 2.398 0.571 0.533 0.381 0.824 1.078 0.876 2.093 0 0.965-0.28 1.637-0.838 2.018-0.559 0.381-1.37 0.571-2.436 0.571h-21.625v17.284h20.863c1.167 0 2.005 0.204 2.513 0.61 0.507 0.406 0.761 1.117 0.761 2.132 0 0.965-0.255 1.625-0.761 1.98-0.508 0.355-1.346 0.533-2.513 0.533h-20.863v19.035z" fill="#6c4006" p-id="14333"></path><path d="M635.734 828.498h-288.29c-61.705 0-111.906-50.201-111.906-111.906V429.161a5.624 5.624 0 0 1 11.248 0v287.432c0 55.503 45.155 100.658 100.658 100.658h288.291c55.503 0 100.658-45.155 100.658-100.658V429.161a5.624 5.624 0 0 1 11.248 0v287.432c0 61.705-50.201 111.905-111.907 111.905zM742.016 397.247a5.624 5.624 0 0 1-5.624-5.624v-47.431c0-55.503-45.155-100.658-100.658-100.658h-288.29c-55.503 0-100.658 45.155-100.658 100.658v47.431a5.624 5.624 0 0 1-11.248 0v-47.431c0-61.705 50.201-111.906 111.906-111.906h288.291c61.705 0 111.906 50.201 111.906 111.906v47.431a5.624 5.624 0 0 1-5.625 5.624z" fill="#6c4006" p-id="14334"></path><path d="M612.411 781.174H370.767c-52.223 0-94.709-42.486-94.709-94.709V374.32c0-52.223 42.486-94.71 94.709-94.71h241.645c52.223 0 94.709 42.486 94.709 94.71v312.145c0 52.223-42.487 94.709-94.71 94.709zM370.767 290.858c-46.021 0-83.461 37.441-83.461 83.462v312.145c0 46.021 37.44 83.461 83.461 83.461h241.645c46.021 0 83.461-37.44 83.461-83.461V374.32c0-46.021-37.44-83.462-83.461-83.462H370.767z" fill="#6c4006" p-id="14335"></path><path d="M247.782 431.965h-6.074a5.624 5.624 0 0 1 0-11.248h6.074c6.471 0 11.735-5.264 11.735-11.735s-5.264-11.735-11.735-11.735h-6.074a5.624 5.624 0 0 1 0-11.248h6.074c12.673 0 22.983 10.31 22.983 22.983s-10.31 22.983-22.983 22.983z" fill="#6c4006" p-id="14336"></path><path d="M741.755 431.965h-6.074c-12.673 0-22.983-10.31-22.983-22.983s10.31-22.983 22.983-22.983h6.074a5.624 5.624 0 0 1 0 11.248h-6.074c-6.471 0-11.735 5.264-11.735 11.735s5.264 11.735 11.735 11.735h6.074a5.624 5.624 0 0 1 0 11.248z" fill="#6c4006" p-id="14337"></path><path d="M305.057 414.606h-9.374a5.624 5.624 0 0 1 0-11.248h9.374a5.624 5.624 0 0 1 0 11.248zM658.487 414.606h-19.635a5.624 5.624 0 0 1 0-11.248h19.635a5.624 5.624 0 0 1 0 11.248z m-39.271 0h-19.635a5.624 5.624 0 0 1 0-11.248h19.635a5.624 5.624 0 0 1 0 11.248z m-39.269 0h-19.635a5.624 5.624 0 0 1 0-11.248h19.635a5.624 5.624 0 0 1 0 11.248z m-39.271 0h-19.635a5.624 5.624 0 0 1 0-11.248h19.635a5.624 5.624 0 0 1 0 11.248z m-39.269 0h-19.635a5.624 5.624 0 0 1 0-11.248h19.635a5.624 5.624 0 0 1 0 11.248z m-39.271 0h-19.635a5.624 5.624 0 0 1 0-11.248h19.635a5.624 5.624 0 0 1 0 11.248z m-39.27 0h-19.635a5.624 5.624 0 0 1 0-11.248h19.635a5.624 5.624 0 0 1 0 11.248z m-39.269 0h-19.635a5.624 5.624 0 0 1 0-11.248h19.635a5.624 5.624 0 0 1 0 11.248z m-39.271 0h-19.635a5.624 5.624 0 0 1 0-11.248h19.635a5.624 5.624 0 0 1 0 11.248zM687.495 414.606h-9.373a5.624 5.624 0 0 1 0-11.248h9.373a5.624 5.624 0 0 1 0 11.248z" fill="#6c4006" p-id="14338"></path><path d="M491.589 728.167A132.055 132.055 0 0 1 370 647.881a5.625 5.625 0 0 1 10.344-4.42c19.064 44.624 62.73 73.457 111.245 73.457s92.181-28.834 111.244-73.457a5.624 5.624 0 0 1 10.344 4.418 132.051 132.051 0 0 1-121.588 80.288zM612.766 565.091a5.626 5.626 0 0 1-5.383-4.004c-7.333-24.356-22.614-46.255-43.028-61.664-21.096-15.924-46.258-24.341-72.765-24.341-26.508 0-51.67 8.417-72.765 24.341-20.414 15.409-35.695 37.309-43.028 61.664a5.624 5.624 0 1 1-10.771-3.243c8.016-26.625 24.716-50.561 47.022-67.399 23.064-17.41 50.569-26.611 79.542-26.611s56.478 9.202 79.542 26.611c22.306 16.838 39.005 40.773 47.022 67.399a5.624 5.624 0 0 1-5.388 7.247z" fill="#6c4006" p-id="14339"></path></svg>